<svg xmlns="http://www.w3.org/2000/svg" fill="none" viewBox="31.284000000000002 0 382.04400000000004 72" style="max-height: 500px" width="382.04400000000004" height="72">
<g clip-path="url(#clip0_1_74)">
<rect fill="#F6B50C" height="72" width="474"/>
<path fill-opacity="0.15" fill="white" d="M197.61 49.6362L204.796 62.083H190.424L197.61 49.6362Z"/>
<path fill-opacity="0.15" fill="white" d="M212.03 49.6362L219.217 62.083H204.844L212.03 49.6362Z"/>
<path fill-opacity="0.15" fill="white" d="M204.796 37.083L211.983 49.5298H197.61L204.796 37.083Z"/>
<path fill-opacity="0.15" fill="white" d="M231.186 12.5532L238.372 25H224L231.186 12.5532Z"/>
<path fill-opacity="0.15" fill="white" d="M245.606 12.5532L252.793 25H238.42L245.606 12.5532Z"/>
<path fill-opacity="0.15" fill="white" d="M238.372 0L245.559 12.4468H231.186L238.372 0Z"/>
<path fill-opacity="0.15" fill="white" d="M323.892 49.6362L331.078 62.083H316.705L323.892 49.6362Z"/>
<path fill-opacity="0.15" fill="white" d="M338.312 49.6362L345.498 62.083H331.126L338.312 49.6362Z"/>
<path fill-opacity="0.15" fill="white" d="M331.078 37.083L338.264 49.5298H323.892L331.078 37.083Z"/>
<path fill-opacity="0.15" fill="white" d="M357.186 12.5532L364.372 25H350L357.186 12.5532Z"/>
<path fill-opacity="0.15" fill="white" d="M371.606 12.5532L378.793 25H364.42L371.606 12.5532Z"/>
<path fill-opacity="0.15" fill="white" d="M364.372 0L371.559 12.4468H357.186L364.372 0Z"/>
<path fill-opacity="0.15" fill="white" d="M388.034 49.6362L395.221 62.083H380.848L388.034 49.6362Z"/>
<path fill-opacity="0.15" fill="white" d="M402.455 49.6362L409.641 62.083H395.268L402.455 49.6362Z"/>
<path fill-opacity="0.15" fill="white" d="M395.221 37.083L402.407 49.5298H388.034L395.221 37.083Z"/>
<path fill-opacity="0.15" fill="white" d="M421.186 12.5532L428.372 25H414L421.186 12.5532Z"/>
<path fill-opacity="0.15" fill="white" d="M435.606 12.5532L442.793 25H428.42L435.606 12.5532Z"/>
<path fill-opacity="0.15" fill="white" d="M428.372 0L435.559 12.4468H421.186L428.372 0Z"/>
<path fill-opacity="0.15" fill="white" d="M260.751 49.6362L267.937 62.083H253.565L260.751 49.6362Z"/>
<path fill-opacity="0.15" fill="white" d="M275.171 49.6362L282.357 62.083H267.985L275.171 49.6362Z"/>
<path fill-opacity="0.15" fill="white" d="M267.937 37.083L275.123 49.5298H260.751L267.937 37.083Z"/>
<path fill-opacity="0.15" fill="white" d="M294.186 12.5532L301.372 25H287L294.186 12.5532Z"/>
<path fill-opacity="0.15" fill="white" d="M308.606 12.5532L315.793 25H301.42L308.606 12.5532Z"/>
<path fill-opacity="0.15" fill="white" d="M301.372 0L308.559 12.4468H294.186L301.372 0Z"/>
<path fill-opacity="0.15" fill="white" d="M134.47 49.6362L141.656 62.083H127.284L134.47 49.6362Z"/>
<path fill-opacity="0.15" fill="white" d="M148.89 49.6362L156.076 62.083H141.704L148.89 49.6362Z"/>
<path fill-opacity="0.15" fill="white" d="M141.656 37.083L148.842 49.5298H134.47L141.656 37.083Z"/>
<path fill-opacity="0.15" fill="white" d="M168.186 12.5532L175.372 25H161L168.186 12.5532Z"/>
<path fill-opacity="0.15" fill="white" d="M182.606 12.5532L189.793 25H175.42L182.606 12.5532Z"/>
<path fill-opacity="0.15" fill="white" d="M175.372 0L182.559 12.4468H168.186L175.372 0Z"/>
<path fill-opacity="0.15" fill="white" d="M41.1862 12.5532L48.3724 25H34.0001L41.1862 12.5532Z"/>
<path fill-opacity="0.15" fill="white" d="M55.6064 12.5532L62.7926 25H48.4203L55.6064 12.5532Z"/>
<path fill-opacity="0.15" fill="white" d="M48.3724 0L55.5586 12.4468H41.1862L48.3724 0Z"/>
<path fill-opacity="0.15" fill="white" d="M70.3269 49.6362L77.513 62.083H63.1407L70.3269 49.6362Z"/>
<path fill-opacity="0.15" fill="white" d="M84.7471 49.6362L91.9332 62.083H77.5609L84.7471 49.6362Z"/>
<path fill-opacity="0.15" fill="white" d="M77.513 37.083L84.6992 49.5298H70.3268L77.513 37.083Z"/>
<path fill-opacity="0.15" fill="white" d="M104.186 12.5532L111.372 25H97.0001L104.186 12.5532Z"/>
<path fill-opacity="0.15" fill="white" d="M118.606 12.5532L125.793 25H111.42L118.606 12.5532Z"/>
<path fill-opacity="0.15" fill="white" d="M111.372 0L118.559 12.4468H104.186L111.372 0Z"/>
</g>
<defs>
<clipPath id="clip0_1_74">
<rect fill="white" height="72" width="474"/>
</clipPath>
</defs>
</svg>