<svg xmlns="http://www.w3.org/2000/svg" fill="none" viewBox="0 0 827.956 383.72297297297297" style="max-height: 500px" width="827.956" height="383.72297297297297">
<g clip-path="url(#clip0_0_1)">
<rect fill="#0082CA" height="399" width="429"/>
<g clip-path="url(#clip1_0_1)">
<path fill-opacity="0.15" fill="white" d="M197.61 48.6362L204.796 61.083H190.424L197.61 48.6362Z"/>
<path fill-opacity="0.15" fill="white" d="M212.03 48.6362L219.217 61.083H204.844L212.03 48.6362Z"/>
<path fill-opacity="0.15" fill="white" d="M204.796 36.083L211.983 48.5298H197.61L204.796 36.083Z"/>
<path fill-opacity="0.15" fill="white" d="M231.186 11.5532L238.372 24H224L231.186 11.5532Z"/>
<path fill-opacity="0.15" fill="white" d="M245.606 11.5532L252.793 24H238.42L245.606 11.5532Z"/>
<path fill-opacity="0.15" fill="white" d="M238.372 -1L245.559 11.4468H231.186L238.372 -1Z"/>
<path fill-opacity="0.15" fill="white" d="M323.892 48.6362L331.078 61.083H316.705L323.892 48.6362Z"/>
<path fill-opacity="0.15" fill="white" d="M338.312 48.6362L345.498 61.083H331.126L338.312 48.6362Z"/>
<path fill-opacity="0.15" fill="white" d="M331.078 36.083L338.264 48.5298H323.892L331.078 36.083Z"/>
<path fill-opacity="0.15" fill="white" d="M357.186 11.5532L364.372 24H350L357.186 11.5532Z"/>
<path fill-opacity="0.15" fill="white" d="M371.606 11.5532L378.793 24H364.42L371.606 11.5532Z"/>
<path fill-opacity="0.15" fill="white" d="M364.372 -1L371.559 11.4468H357.186L364.372 -1Z"/>
<path fill-opacity="0.15" fill="white" d="M388.034 48.6362L395.221 61.083H380.848L388.034 48.6362Z"/>
<path fill-opacity="0.15" fill="white" d="M402.455 48.6362L409.641 61.083H395.268L402.455 48.6362Z"/>
<path fill-opacity="0.15" fill="white" d="M395.221 36.083L402.407 48.5298H388.034L395.221 36.083Z"/>
<path fill-opacity="0.15" fill="white" d="M421.186 11.5532L428.372 24H414L421.186 11.5532Z"/>
<path fill-opacity="0.15" fill="white" d="M435.606 11.5532L442.793 24H428.42L435.606 11.5532Z"/>
<path fill-opacity="0.15" fill="white" d="M428.372 -1L435.559 11.4468H421.186L428.372 -1Z"/>
<path fill-opacity="0.15" fill="white" d="M260.751 48.6362L267.937 61.083H253.565L260.751 48.6362Z"/>
<path fill-opacity="0.15" fill="white" d="M275.171 48.6362L282.357 61.083H267.985L275.171 48.6362Z"/>
<path fill-opacity="0.15" fill="white" d="M267.937 36.083L275.123 48.5298H260.751L267.937 36.083Z"/>
<path fill-opacity="0.15" fill="white" d="M294.186 11.5532L301.372 24H287L294.186 11.5532Z"/>
<path fill-opacity="0.15" fill="white" d="M308.606 11.5532L315.793 24H301.42L308.606 11.5532Z"/>
<path fill-opacity="0.15" fill="white" d="M301.372 -1L308.559 11.4468H294.186L301.372 -1Z"/>
<path fill-opacity="0.15" fill="white" d="M134.47 48.6362L141.656 61.083H127.284L134.47 48.6362Z"/>
<path fill-opacity="0.15" fill="white" d="M148.89 48.6362L156.076 61.083H141.704L148.89 48.6362Z"/>
<path fill-opacity="0.15" fill="white" d="M141.656 36.083L148.842 48.5298H134.47L141.656 36.083Z"/>
<path fill-opacity="0.15" fill="white" d="M168.186 11.5532L175.372 24H161L168.186 11.5532Z"/>
<path fill-opacity="0.15" fill="white" d="M182.606 11.5532L189.793 24H175.42L182.606 11.5532Z"/>
<path fill-opacity="0.15" fill="white" d="M175.372 -1L182.559 11.4468H168.186L175.372 -1Z"/>
<path fill-opacity="0.15" fill="white" d="M7.18623 48.6362L14.3724 61.083H6.10352e-05L7.18623 48.6362Z"/>
<path fill-opacity="0.15" fill="white" d="M21.6064 48.6362L28.7926 61.083H14.4203L21.6064 48.6362Z"/>
<path fill-opacity="0.15" fill="white" d="M14.3724 36.083L21.5586 48.5298H7.18622L14.3724 36.083Z"/>
<path fill-opacity="0.15" fill="white" d="M41.1862 11.5532L48.3724 24H34.0001L41.1862 11.5532Z"/>
<path fill-opacity="0.15" fill="white" d="M55.6064 11.5532L62.7926 24H48.4203L55.6064 11.5532Z"/>
<path fill-opacity="0.15" fill="white" d="M48.3724 -1L55.5586 11.4468H41.1862L48.3724 -1Z"/>
<path fill-opacity="0.15" fill="white" d="M70.3269 48.6362L77.513 61.083H63.1407L70.3269 48.6362Z"/>
<path fill-opacity="0.15" fill="white" d="M84.7471 48.6362L91.9332 61.083H77.5609L84.7471 48.6362Z"/>
<path fill-opacity="0.15" fill="white" d="M77.513 36.083L84.6992 48.5298H70.3268L77.513 36.083Z"/>
<path fill-opacity="0.15" fill="white" d="M104.186 11.5532L111.372 24H97.0001L104.186 11.5532Z"/>
<path fill-opacity="0.15" fill="white" d="M118.606 11.5532L125.793 24H111.42L118.606 11.5532Z"/>
<path fill-opacity="0.15" fill="white" d="M111.372 -1L118.559 11.4468H104.186L111.372 -1Z"/>
</g>
<g clip-path="url(#clip2_0_1)">
<path fill-opacity="0.15" fill="white" d="M197.61 119.636L204.796 132.083H190.424L197.61 119.636Z"/>
<path fill-opacity="0.15" fill="white" d="M212.03 119.636L219.217 132.083H204.844L212.03 119.636Z"/>
<path fill-opacity="0.15" fill="white" d="M204.796 107.083L211.983 119.53H197.61L204.796 107.083Z"/>
<path fill-opacity="0.15" fill="white" d="M231.186 82.5532L238.372 95H224L231.186 82.5532Z"/>
<path fill-opacity="0.15" fill="white" d="M245.606 82.5532L252.793 95H238.42L245.606 82.5532Z"/>
<path fill-opacity="0.15" fill="white" d="M238.372 70L245.559 82.4468H231.186L238.372 70Z"/>
<path fill-opacity="0.15" fill="white" d="M323.892 119.636L331.078 132.083H316.705L323.892 119.636Z"/>
<path fill-opacity="0.15" fill="white" d="M338.312 119.636L345.498 132.083H331.126L338.312 119.636Z"/>
<path fill-opacity="0.15" fill="white" d="M331.078 107.083L338.264 119.53H323.892L331.078 107.083Z"/>
<path fill-opacity="0.15" fill="white" d="M357.186 82.5532L364.372 95H350L357.186 82.5532Z"/>
<path fill-opacity="0.15" fill="white" d="M371.606 82.5532L378.793 95H364.42L371.606 82.5532Z"/>
<path fill-opacity="0.15" fill="white" d="M364.372 70L371.559 82.4468H357.186L364.372 70Z"/>
<path fill-opacity="0.15" fill="white" d="M388.034 119.636L395.221 132.083H380.848L388.034 119.636Z"/>
<path fill-opacity="0.15" fill="white" d="M402.455 119.636L409.641 132.083H395.268L402.455 119.636Z"/>
<path fill-opacity="0.15" fill="white" d="M395.221 107.083L402.407 119.53H388.034L395.221 107.083Z"/>
<path fill-opacity="0.15" fill="white" d="M421.186 82.5532L428.372 95H414L421.186 82.5532Z"/>
<path fill-opacity="0.15" fill="white" d="M435.606 82.5532L442.793 95H428.42L435.606 82.5532Z"/>
<path fill-opacity="0.15" fill="white" d="M428.372 70L435.559 82.4468H421.186L428.372 70Z"/>
<path fill-opacity="0.15" fill="white" d="M260.751 119.636L267.937 132.083H253.565L260.751 119.636Z"/>
<path fill-opacity="0.15" fill="white" d="M275.171 119.636L282.357 132.083H267.985L275.171 119.636Z"/>
<path fill-opacity="0.15" fill="white" d="M267.937 107.083L275.123 119.53H260.751L267.937 107.083Z"/>
<path fill-opacity="0.15" fill="white" d="M294.186 82.5532L301.372 95H287L294.186 82.5532Z"/>
<path fill-opacity="0.15" fill="white" d="M308.606 82.5532L315.793 95H301.42L308.606 82.5532Z"/>
<path fill-opacity="0.15" fill="white" d="M301.372 70L308.559 82.4468H294.186L301.372 70Z"/>
<path fill-opacity="0.15" fill="white" d="M134.47 119.636L141.656 132.083H127.284L134.47 119.636Z"/>
<path fill-opacity="0.15" fill="white" d="M148.89 119.636L156.076 132.083H141.704L148.89 119.636Z"/>
<path fill-opacity="0.15" fill="white" d="M141.656 107.083L148.842 119.53H134.47L141.656 107.083Z"/>
<path fill-opacity="0.15" fill="white" d="M168.186 82.5532L175.372 95H161L168.186 82.5532Z"/>
<path fill-opacity="0.15" fill="white" d="M182.606 82.5532L189.793 95H175.42L182.606 82.5532Z"/>
<path fill-opacity="0.15" fill="white" d="M175.372 70L182.559 82.4468H168.186L175.372 70Z"/>
<path fill-opacity="0.15" fill="white" d="M7.18623 119.636L14.3724 132.083H6.10352e-05L7.18623 119.636Z"/>
<path fill-opacity="0.15" fill="white" d="M21.6064 119.636L28.7926 132.083H14.4203L21.6064 119.636Z"/>
<path fill-opacity="0.15" fill="white" d="M14.3724 107.083L21.5586 119.53H7.18622L14.3724 107.083Z"/>
<path fill-opacity="0.15" fill="white" d="M41.1862 82.5532L48.3724 95H34.0001L41.1862 82.5532Z"/>
<path fill-opacity="0.15" fill="white" d="M55.6064 82.5532L62.7926 95H48.4203L55.6064 82.5532Z"/>
<path fill-opacity="0.15" fill="white" d="M48.3724 70L55.5586 82.4468H41.1862L48.3724 70Z"/>
<path fill-opacity="0.15" fill="white" d="M70.3269 119.636L77.513 132.083H63.1407L70.3269 119.636Z"/>
<path fill-opacity="0.15" fill="white" d="M84.7471 119.636L91.9332 132.083H77.5609L84.7471 119.636Z"/>
<path fill-opacity="0.15" fill="white" d="M77.513 107.083L84.6992 119.53H70.3268L77.513 107.083Z"/>
<path fill-opacity="0.15" fill="white" d="M104.186 82.5532L111.372 95H97.0001L104.186 82.5532Z"/>
<path fill-opacity="0.15" fill="white" d="M118.606 82.5532L125.793 95H111.42L118.606 82.5532Z"/>
<path fill-opacity="0.15" fill="white" d="M111.372 70L118.559 82.4468H104.186L111.372 70Z"/>
</g>
<g clip-path="url(#clip3_0_1)">
<path fill-opacity="0.15" fill="white" d="M197.61 188.636L204.796 201.083H190.424L197.61 188.636Z"/>
<path fill-opacity="0.15" fill="white" d="M212.03 188.636L219.217 201.083H204.844L212.03 188.636Z"/>
<path fill-opacity="0.15" fill="white" d="M204.796 176.083L211.983 188.53H197.61L204.796 176.083Z"/>
<path fill-opacity="0.15" fill="white" d="M231.186 151.553L238.372 164H224L231.186 151.553Z"/>
<path fill-opacity="0.15" fill="white" d="M245.606 151.553L252.793 164H238.42L245.606 151.553Z"/>
<path fill-opacity="0.15" fill="white" d="M238.372 139L245.559 151.447H231.186L238.372 139Z"/>
<path fill-opacity="0.15" fill="white" d="M323.892 188.636L331.078 201.083H316.705L323.892 188.636Z"/>
<path fill-opacity="0.15" fill="white" d="M338.312 188.636L345.498 201.083H331.126L338.312 188.636Z"/>
<path fill-opacity="0.15" fill="white" d="M331.078 176.083L338.264 188.53H323.892L331.078 176.083Z"/>
<path fill-opacity="0.15" fill="white" d="M357.186 151.553L364.372 164H350L357.186 151.553Z"/>
<path fill-opacity="0.15" fill="white" d="M371.606 151.553L378.793 164H364.42L371.606 151.553Z"/>
<path fill-opacity="0.15" fill="white" d="M364.372 139L371.559 151.447H357.186L364.372 139Z"/>
<path fill-opacity="0.15" fill="white" d="M388.034 188.636L395.221 201.083H380.848L388.034 188.636Z"/>
<path fill-opacity="0.15" fill="white" d="M402.455 188.636L409.641 201.083H395.268L402.455 188.636Z"/>
<path fill-opacity="0.15" fill="white" d="M395.221 176.083L402.407 188.53H388.034L395.221 176.083Z"/>
<path fill-opacity="0.15" fill="white" d="M421.186 151.553L428.372 164H414L421.186 151.553Z"/>
<path fill-opacity="0.15" fill="white" d="M435.606 151.553L442.793 164H428.42L435.606 151.553Z"/>
<path fill-opacity="0.15" fill="white" d="M428.372 139L435.559 151.447H421.186L428.372 139Z"/>
<path fill-opacity="0.15" fill="white" d="M260.751 188.636L267.937 201.083H253.565L260.751 188.636Z"/>
<path fill-opacity="0.15" fill="white" d="M275.171 188.636L282.357 201.083H267.985L275.171 188.636Z"/>
<path fill-opacity="0.15" fill="white" d="M267.937 176.083L275.123 188.53H260.751L267.937 176.083Z"/>
<path fill-opacity="0.15" fill="white" d="M294.186 151.553L301.372 164H287L294.186 151.553Z"/>
<path fill-opacity="0.15" fill="white" d="M308.606 151.553L315.793 164H301.42L308.606 151.553Z"/>
<path fill-opacity="0.15" fill="white" d="M301.372 139L308.559 151.447H294.186L301.372 139Z"/>
<path fill-opacity="0.15" fill="white" d="M134.47 188.636L141.656 201.083H127.284L134.47 188.636Z"/>
<path fill-opacity="0.15" fill="white" d="M148.89 188.636L156.076 201.083H141.704L148.89 188.636Z"/>
<path fill-opacity="0.15" fill="white" d="M141.656 176.083L148.842 188.53H134.47L141.656 176.083Z"/>
<path fill-opacity="0.15" fill="white" d="M168.186 151.553L175.372 164H161L168.186 151.553Z"/>
<path fill-opacity="0.15" fill="white" d="M182.606 151.553L189.793 164H175.42L182.606 151.553Z"/>
<path fill-opacity="0.15" fill="white" d="M175.372 139L182.559 151.447H168.186L175.372 139Z"/>
<path fill-opacity="0.15" fill="white" d="M7.18623 188.636L14.3724 201.083H6.10352e-05L7.18623 188.636Z"/>
<path fill-opacity="0.15" fill="white" d="M21.6064 188.636L28.7926 201.083H14.4203L21.6064 188.636Z"/>
<path fill-opacity="0.15" fill="white" d="M14.3724 176.083L21.5586 188.53H7.18622L14.3724 176.083Z"/>
<path fill-opacity="0.15" fill="white" d="M41.1862 151.553L48.3724 164H34.0001L41.1862 151.553Z"/>
<path fill-opacity="0.15" fill="white" d="M55.6064 151.553L62.7926 164H48.4203L55.6064 151.553Z"/>
<path fill-opacity="0.15" fill="white" d="M48.3724 139L55.5586 151.447H41.1862L48.3724 139Z"/>
<path fill-opacity="0.15" fill="white" d="M70.3269 188.636L77.513 201.083H63.1407L70.3269 188.636Z"/>
<path fill-opacity="0.15" fill="white" d="M84.7471 188.636L91.9332 201.083H77.5609L84.7471 188.636Z"/>
<path fill-opacity="0.15" fill="white" d="M77.513 176.083L84.6992 188.53H70.3268L77.513 176.083Z"/>
<path fill-opacity="0.15" fill="white" d="M104.186 151.553L111.372 164H97.0001L104.186 151.553Z"/>
<path fill-opacity="0.15" fill="white" d="M118.606 151.553L125.793 164H111.42L118.606 151.553Z"/>
<path fill-opacity="0.15" fill="white" d="M111.372 139L118.559 151.447H104.186L111.372 139Z"/>
</g>
<g clip-path="url(#clip4_0_1)">
<path fill-opacity="0.15" fill="white" d="M197.61 259.636L204.796 272.083H190.424L197.61 259.636Z"/>
<path fill-opacity="0.15" fill="white" d="M212.03 259.636L219.217 272.083H204.844L212.03 259.636Z"/>
<path fill-opacity="0.15" fill="white" d="M204.796 247.083L211.983 259.53H197.61L204.796 247.083Z"/>
<path fill-opacity="0.15" fill="white" d="M231.186 222.553L238.372 235H224L231.186 222.553Z"/>
<path fill-opacity="0.15" fill="white" d="M245.606 222.553L252.793 235H238.42L245.606 222.553Z"/>
<path fill-opacity="0.15" fill="white" d="M238.372 210L245.559 222.447H231.186L238.372 210Z"/>
<path fill-opacity="0.15" fill="white" d="M323.892 259.636L331.078 272.083H316.705L323.892 259.636Z"/>
<path fill-opacity="0.15" fill="white" d="M338.312 259.636L345.498 272.083H331.126L338.312 259.636Z"/>
<path fill-opacity="0.15" fill="white" d="M331.078 247.083L338.264 259.53H323.892L331.078 247.083Z"/>
<path fill-opacity="0.15" fill="white" d="M357.186 222.553L364.372 235H350L357.186 222.553Z"/>
<path fill-opacity="0.15" fill="white" d="M371.606 222.553L378.793 235H364.42L371.606 222.553Z"/>
<path fill-opacity="0.15" fill="white" d="M364.372 210L371.559 222.447H357.186L364.372 210Z"/>
<path fill-opacity="0.15" fill="white" d="M388.034 259.636L395.221 272.083H380.848L388.034 259.636Z"/>
<path fill-opacity="0.15" fill="white" d="M402.455 259.636L409.641 272.083H395.268L402.455 259.636Z"/>
<path fill-opacity="0.15" fill="white" d="M395.221 247.083L402.407 259.53H388.034L395.221 247.083Z"/>
<path fill-opacity="0.15" fill="white" d="M421.186 222.553L428.372 235H414L421.186 222.553Z"/>
<path fill-opacity="0.15" fill="white" d="M435.606 222.553L442.793 235H428.42L435.606 222.553Z"/>
<path fill-opacity="0.15" fill="white" d="M428.372 210L435.559 222.447H421.186L428.372 210Z"/>
<path fill-opacity="0.15" fill="white" d="M260.751 259.636L267.937 272.083H253.565L260.751 259.636Z"/>
<path fill-opacity="0.15" fill="white" d="M275.171 259.636L282.357 272.083H267.985L275.171 259.636Z"/>
<path fill-opacity="0.15" fill="white" d="M267.937 247.083L275.123 259.53H260.751L267.937 247.083Z"/>
<path fill-opacity="0.15" fill="white" d="M294.186 222.553L301.372 235H287L294.186 222.553Z"/>
<path fill-opacity="0.15" fill="white" d="M308.606 222.553L315.793 235H301.42L308.606 222.553Z"/>
<path fill-opacity="0.15" fill="white" d="M301.372 210L308.559 222.447H294.186L301.372 210Z"/>
<path fill-opacity="0.15" fill="white" d="M134.47 259.636L141.656 272.083H127.284L134.47 259.636Z"/>
<path fill-opacity="0.15" fill="white" d="M148.89 259.636L156.076 272.083H141.704L148.89 259.636Z"/>
<path fill-opacity="0.15" fill="white" d="M141.656 247.083L148.842 259.53H134.47L141.656 247.083Z"/>
<path fill-opacity="0.15" fill="white" d="M168.186 222.553L175.372 235H161L168.186 222.553Z"/>
<path fill-opacity="0.15" fill="white" d="M182.606 222.553L189.793 235H175.42L182.606 222.553Z"/>
<path fill-opacity="0.15" fill="white" d="M175.372 210L182.559 222.447H168.186L175.372 210Z"/>
<path fill-opacity="0.15" fill="white" d="M7.18623 259.636L14.3724 272.083H6.10352e-05L7.18623 259.636Z"/>
<path fill-opacity="0.15" fill="white" d="M21.6064 259.636L28.7926 272.083H14.4203L21.6064 259.636Z"/>
<path fill-opacity="0.15" fill="white" d="M14.3724 247.083L21.5586 259.53H7.18622L14.3724 247.083Z"/>
<path fill-opacity="0.15" fill="white" d="M41.1862 222.553L48.3724 235H34.0001L41.1862 222.553Z"/>
<path fill-opacity="0.15" fill="white" d="M55.6064 222.553L62.7926 235H48.4203L55.6064 222.553Z"/>
<path fill-opacity="0.15" fill="white" d="M48.3724 210L55.5586 222.447H41.1862L48.3724 210Z"/>
<path fill-opacity="0.15" fill="white" d="M70.3269 259.636L77.513 272.083H63.1407L70.3269 259.636Z"/>
<path fill-opacity="0.15" fill="white" d="M84.7471 259.636L91.9332 272.083H77.5609L84.7471 259.636Z"/>
<path fill-opacity="0.15" fill="white" d="M77.513 247.083L84.6992 259.53H70.3268L77.513 247.083Z"/>
<path fill-opacity="0.15" fill="white" d="M104.186 222.553L111.372 235H97.0001L104.186 222.553Z"/>
<path fill-opacity="0.15" fill="white" d="M118.606 222.553L125.793 235H111.42L118.606 222.553Z"/>
<path fill-opacity="0.15" fill="white" d="M111.372 210L118.559 222.447H104.186L111.372 210Z"/>
</g>
<g clip-path="url(#clip5_0_1)">
<path fill-opacity="0.15" fill="white" d="M197.61 328.636L204.796 341.083H190.424L197.61 328.636Z"/>
<path fill-opacity="0.15" fill="white" d="M212.03 328.636L219.217 341.083H204.844L212.03 328.636Z"/>
<path fill-opacity="0.15" fill="white" d="M204.796 316.083L211.983 328.53H197.61L204.796 316.083Z"/>
<path fill-opacity="0.15" fill="white" d="M231.186 291.553L238.372 304H224L231.186 291.553Z"/>
<path fill-opacity="0.15" fill="white" d="M245.606 291.553L252.793 304H238.42L245.606 291.553Z"/>
<path fill-opacity="0.15" fill="white" d="M238.372 279L245.559 291.447H231.186L238.372 279Z"/>
<path fill-opacity="0.15" fill="white" d="M323.892 328.636L331.078 341.083H316.705L323.892 328.636Z"/>
<path fill-opacity="0.15" fill="white" d="M338.312 328.636L345.498 341.083H331.126L338.312 328.636Z"/>
<path fill-opacity="0.15" fill="white" d="M331.078 316.083L338.264 328.53H323.892L331.078 316.083Z"/>
<path fill-opacity="0.15" fill="white" d="M357.186 291.553L364.372 304H350L357.186 291.553Z"/>
<path fill-opacity="0.15" fill="white" d="M371.606 291.553L378.793 304H364.42L371.606 291.553Z"/>
<path fill-opacity="0.15" fill="white" d="M364.372 279L371.559 291.447H357.186L364.372 279Z"/>
<path fill-opacity="0.15" fill="white" d="M388.034 328.636L395.221 341.083H380.848L388.034 328.636Z"/>
<path fill-opacity="0.15" fill="white" d="M402.455 328.636L409.641 341.083H395.268L402.455 328.636Z"/>
<path fill-opacity="0.15" fill="white" d="M395.221 316.083L402.407 328.53H388.034L395.221 316.083Z"/>
<path fill-opacity="0.15" fill="white" d="M421.186 291.553L428.372 304H414L421.186 291.553Z"/>
<path fill-opacity="0.15" fill="white" d="M435.606 291.553L442.793 304H428.42L435.606 291.553Z"/>
<path fill-opacity="0.15" fill="white" d="M428.372 279L435.559 291.447H421.186L428.372 279Z"/>
<path fill-opacity="0.15" fill="white" d="M260.751 328.636L267.937 341.083H253.565L260.751 328.636Z"/>
<path fill-opacity="0.15" fill="white" d="M275.171 328.636L282.357 341.083H267.985L275.171 328.636Z"/>
<path fill-opacity="0.15" fill="white" d="M267.937 316.083L275.123 328.53H260.751L267.937 316.083Z"/>
<path fill-opacity="0.15" fill="white" d="M294.186 291.553L301.372 304H287L294.186 291.553Z"/>
<path fill-opacity="0.15" fill="white" d="M308.606 291.553L315.793 304H301.42L308.606 291.553Z"/>
<path fill-opacity="0.15" fill="white" d="M301.372 279L308.559 291.447H294.186L301.372 279Z"/>
<path fill-opacity="0.15" fill="white" d="M134.47 328.636L141.656 341.083H127.284L134.47 328.636Z"/>
<path fill-opacity="0.15" fill="white" d="M148.89 328.636L156.076 341.083H141.704L148.89 328.636Z"/>
<path fill-opacity="0.15" fill="white" d="M141.656 316.083L148.842 328.53H134.47L141.656 316.083Z"/>
<path fill-opacity="0.15" fill="white" d="M168.186 291.553L175.372 304H161L168.186 291.553Z"/>
<path fill-opacity="0.15" fill="white" d="M182.606 291.553L189.793 304H175.42L182.606 291.553Z"/>
<path fill-opacity="0.15" fill="white" d="M175.372 279L182.559 291.447H168.186L175.372 279Z"/>
<path fill-opacity="0.15" fill="white" d="M7.18623 328.636L14.3724 341.083H6.10352e-05L7.18623 328.636Z"/>
<path fill-opacity="0.15" fill="white" d="M21.6064 328.636L28.7926 341.083H14.4203L21.6064 328.636Z"/>
<path fill-opacity="0.15" fill="white" d="M14.3724 316.083L21.5586 328.53H7.18622L14.3724 316.083Z"/>
<path fill-opacity="0.15" fill="white" d="M41.1862 291.553L48.3724 304H34.0001L41.1862 291.553Z"/>
<path fill-opacity="0.15" fill="white" d="M55.6064 291.553L62.7926 304H48.4203L55.6064 291.553Z"/>
<path fill-opacity="0.15" fill="white" d="M48.3724 279L55.5586 291.447H41.1862L48.3724 279Z"/>
<path fill-opacity="0.15" fill="white" d="M70.3269 328.636L77.513 341.083H63.1407L70.3269 328.636Z"/>
<path fill-opacity="0.15" fill="white" d="M84.7471 328.636L91.9332 341.083H77.5609L84.7471 328.636Z"/>
<path fill-opacity="0.15" fill="white" d="M77.513 316.083L84.6992 328.53H70.3268L77.513 316.083Z"/>
<path fill-opacity="0.15" fill="white" d="M104.186 291.553L111.372 304H97.0001L104.186 291.553Z"/>
<path fill-opacity="0.15" fill="white" d="M118.606 291.553L125.793 304H111.42L118.606 291.553Z"/>
<path fill-opacity="0.15" fill="white" d="M111.372 279L118.559 291.447H104.186L111.372 279Z"/>
</g>
<g clip-path="url(#clip6_0_1)">
<path fill-opacity="0.15" fill="white" d="M204.796 387.083L211.983 399.53H197.61L204.796 387.083Z"/>
<path fill-opacity="0.15" fill="white" d="M231.186 362.553L238.372 375H224L231.186 362.553Z"/>
<path fill-opacity="0.15" fill="white" d="M245.606 362.553L252.793 375H238.42L245.606 362.553Z"/>
<path fill-opacity="0.15" fill="white" d="M238.372 350L245.559 362.447H231.186L238.372 350Z"/>
<path fill-opacity="0.15" fill="white" d="M331.078 387.083L338.264 399.53H323.892L331.078 387.083Z"/>
<path fill-opacity="0.15" fill="white" d="M357.186 362.553L364.372 375H350L357.186 362.553Z"/>
<path fill-opacity="0.15" fill="white" d="M371.606 362.553L378.793 375H364.42L371.606 362.553Z"/>
<path fill-opacity="0.15" fill="white" d="M364.372 350L371.559 362.447H357.186L364.372 350Z"/>
<path fill-opacity="0.15" fill="white" d="M395.221 387.083L402.407 399.53H388.034L395.221 387.083Z"/>
<path fill-opacity="0.15" fill="white" d="M421.186 362.553L428.372 375H414L421.186 362.553Z"/>
<path fill-opacity="0.15" fill="white" d="M435.606 362.553L442.793 375H428.42L435.606 362.553Z"/>
<path fill-opacity="0.15" fill="white" d="M428.372 350L435.559 362.447H421.186L428.372 350Z"/>
<path fill-opacity="0.15" fill="white" d="M267.937 387.083L275.123 399.53H260.751L267.937 387.083Z"/>
<path fill-opacity="0.15" fill="white" d="M294.186 362.553L301.372 375H287L294.186 362.553Z"/>
<path fill-opacity="0.15" fill="white" d="M308.606 362.553L315.793 375H301.42L308.606 362.553Z"/>
<path fill-opacity="0.15" fill="white" d="M301.372 350L308.559 362.447H294.186L301.372 350Z"/>
<path fill-opacity="0.15" fill="white" d="M141.656 387.083L148.842 399.53H134.47L141.656 387.083Z"/>
<path fill-opacity="0.15" fill="white" d="M168.186 362.553L175.372 375H161L168.186 362.553Z"/>
<path fill-opacity="0.15" fill="white" d="M182.606 362.553L189.793 375H175.42L182.606 362.553Z"/>
<path fill-opacity="0.15" fill="white" d="M175.372 350L182.559 362.447H168.186L175.372 350Z"/>
<path fill-opacity="0.15" fill="white" d="M14.3724 387.083L21.5586 399.53H7.18622L14.3724 387.083Z"/>
<path fill-opacity="0.15" fill="white" d="M41.1862 362.553L48.3724 375H34.0001L41.1862 362.553Z"/>
<path fill-opacity="0.15" fill="white" d="M55.6064 362.553L62.7926 375H48.4203L55.6064 362.553Z"/>
<path fill-opacity="0.15" fill="white" d="M48.3724 350L55.5586 362.447H41.1862L48.3724 350Z"/>
<path fill-opacity="0.15" fill="white" d="M77.513 387.083L84.6992 399.53H70.3268L77.513 387.083Z"/>
<path fill-opacity="0.15" fill="white" d="M104.186 362.553L111.372 375H97.0001L104.186 362.553Z"/>
<path fill-opacity="0.15" fill="white" d="M118.606 362.553L125.793 375H111.42L118.606 362.553Z"/>
<path fill-opacity="0.15" fill="white" d="M111.372 350L118.559 362.447H104.186L111.372 350Z"/>
</g>
</g>
<g clip-path="url(#clip7_0_1)">
<rect fill="#0082CA" transform="translate(381)" height="399" width="517"/>
<g clip-path="url(#clip8_0_1)">
<path fill-opacity="0.15" fill="white" d="M578.61 48.6362L585.796 61.083H571.424L578.61 48.6362Z"/>
<path fill-opacity="0.15" fill="white" d="M593.03 48.6362L600.217 61.083H585.844L593.03 48.6362Z"/>
<path fill-opacity="0.15" fill="white" d="M585.796 36.083L592.983 48.5298H578.61L585.796 36.083Z"/>
<path fill-opacity="0.15" fill="white" d="M612.186 11.5532L619.372 24H605L612.186 11.5532Z"/>
<path fill-opacity="0.15" fill="white" d="M626.606 11.5532L633.793 24H619.42L626.606 11.5532Z"/>
<path fill-opacity="0.15" fill="white" d="M619.372 -1L626.559 11.4468H612.186L619.372 -1Z"/>
<path fill-opacity="0.15" fill="white" d="M704.892 48.6362L712.078 61.083H697.705L704.892 48.6362Z"/>
<path fill-opacity="0.15" fill="white" d="M719.312 48.6362L726.498 61.083H712.126L719.312 48.6362Z"/>
<path fill-opacity="0.15" fill="white" d="M712.078 36.083L719.264 48.5298H704.892L712.078 36.083Z"/>
<path fill-opacity="0.15" fill="white" d="M738.186 11.5532L745.372 24H731L738.186 11.5532Z"/>
<path fill-opacity="0.15" fill="white" d="M752.606 11.5532L759.793 24H745.42L752.606 11.5532Z"/>
<path fill-opacity="0.15" fill="white" d="M745.372 -1L752.559 11.4468H738.186L745.372 -1Z"/>
<path fill-opacity="0.15" fill="white" d="M769.034 48.6362L776.221 61.083H761.848L769.034 48.6362Z"/>
<path fill-opacity="0.15" fill="white" d="M783.455 48.6362L790.641 61.083H776.268L783.455 48.6362Z"/>
<path fill-opacity="0.15" fill="white" d="M776.221 36.083L783.407 48.5298H769.034L776.221 36.083Z"/>
<path fill-opacity="0.15" fill="white" d="M802.186 11.5532L809.372 24H795L802.186 11.5532Z"/>
<path fill-opacity="0.15" fill="white" d="M816.606 11.5532L823.793 24H809.42L816.606 11.5532Z"/>
<path fill-opacity="0.15" fill="white" d="M809.372 -1L816.559 11.4468H802.186L809.372 -1Z"/>
<path fill-opacity="0.15" fill="white" d="M641.751 48.6362L648.937 61.083H634.565L641.751 48.6362Z"/>
<path fill-opacity="0.15" fill="white" d="M656.171 48.6362L663.357 61.083H648.985L656.171 48.6362Z"/>
<path fill-opacity="0.15" fill="white" d="M648.937 36.083L656.123 48.5298H641.751L648.937 36.083Z"/>
<path fill-opacity="0.15" fill="white" d="M675.186 11.5532L682.372 24H668L675.186 11.5532Z"/>
<path fill-opacity="0.15" fill="white" d="M689.606 11.5532L696.793 24H682.42L689.606 11.5532Z"/>
<path fill-opacity="0.15" fill="white" d="M682.372 -1L689.559 11.4468H675.186L682.372 -1Z"/>
<path fill-opacity="0.15" fill="white" d="M515.47 48.6362L522.656 61.083H508.284L515.47 48.6362Z"/>
<path fill-opacity="0.15" fill="white" d="M529.89 48.6362L537.076 61.083H522.704L529.89 48.6362Z"/>
<path fill-opacity="0.15" fill="white" d="M522.656 36.083L529.842 48.5298H515.47L522.656 36.083Z"/>
<path fill-opacity="0.15" fill="white" d="M549.186 11.5532L556.372 24H542L549.186 11.5532Z"/>
<path fill-opacity="0.15" fill="white" d="M563.606 11.5532L570.793 24H556.42L563.606 11.5532Z"/>
<path fill-opacity="0.15" fill="white" d="M556.372 -1L563.559 11.4468H549.186L556.372 -1Z"/>
<path fill-opacity="0.15" fill="white" d="M388.186 48.6362L395.372 61.083H381L388.186 48.6362Z"/>
<path fill-opacity="0.15" fill="white" d="M402.606 48.6362L409.793 61.083H395.42L402.606 48.6362Z"/>
<path fill-opacity="0.15" fill="white" d="M395.372 36.083L402.559 48.5298H388.186L395.372 36.083Z"/>
<path fill-opacity="0.15" fill="white" d="M422.186 11.5532L429.372 24H415L422.186 11.5532Z"/>
<path fill-opacity="0.15" fill="white" d="M436.606 11.5532L443.793 24H429.42L436.606 11.5532Z"/>
<path fill-opacity="0.15" fill="white" d="M429.372 -1L436.559 11.4468H422.186L429.372 -1Z"/>
<path fill-opacity="0.15" fill="white" d="M451.327 48.6362L458.513 61.083H444.141L451.327 48.6362Z"/>
<path fill-opacity="0.15" fill="white" d="M465.747 48.6362L472.933 61.083H458.561L465.747 48.6362Z"/>
<path fill-opacity="0.15" fill="white" d="M458.513 36.083L465.699 48.5298H451.327L458.513 36.083Z"/>
<path fill-opacity="0.15" fill="white" d="M485.186 11.5532L492.372 24H478L485.186 11.5532Z"/>
<path fill-opacity="0.15" fill="white" d="M499.606 11.5532L506.793 24H492.42L499.606 11.5532Z"/>
<path fill-opacity="0.15" fill="white" d="M492.372 -1L499.559 11.4468H485.186L492.372 -1Z"/>
</g>
<g clip-path="url(#clip9_0_1)">
<path fill-opacity="0.15" fill="white" d="M578.61 119.636L585.796 132.083H571.424L578.61 119.636Z"/>
<path fill-opacity="0.15" fill="white" d="M593.03 119.636L600.217 132.083H585.844L593.03 119.636Z"/>
<path fill-opacity="0.15" fill="white" d="M585.796 107.083L592.983 119.53H578.61L585.796 107.083Z"/>
<path fill-opacity="0.15" fill="white" d="M612.186 82.5532L619.372 95H605L612.186 82.5532Z"/>
<path fill-opacity="0.15" fill="white" d="M626.606 82.5532L633.793 95H619.42L626.606 82.5532Z"/>
<path fill-opacity="0.15" fill="white" d="M619.372 70L626.559 82.4468H612.186L619.372 70Z"/>
<path fill-opacity="0.15" fill="white" d="M704.892 119.636L712.078 132.083H697.705L704.892 119.636Z"/>
<path fill-opacity="0.15" fill="white" d="M719.312 119.636L726.498 132.083H712.126L719.312 119.636Z"/>
<path fill-opacity="0.15" fill="white" d="M712.078 107.083L719.264 119.53H704.892L712.078 107.083Z"/>
<path fill-opacity="0.15" fill="white" d="M738.186 82.5532L745.372 95H731L738.186 82.5532Z"/>
<path fill-opacity="0.15" fill="white" d="M752.606 82.5532L759.793 95H745.42L752.606 82.5532Z"/>
<path fill-opacity="0.15" fill="white" d="M745.372 70L752.559 82.4468H738.186L745.372 70Z"/>
<path fill-opacity="0.15" fill="white" d="M769.034 119.636L776.221 132.083H761.848L769.034 119.636Z"/>
<path fill-opacity="0.15" fill="white" d="M783.455 119.636L790.641 132.083H776.268L783.455 119.636Z"/>
<path fill-opacity="0.15" fill="white" d="M776.221 107.083L783.407 119.53H769.034L776.221 107.083Z"/>
<path fill-opacity="0.15" fill="white" d="M802.186 82.5532L809.372 95H795L802.186 82.5532Z"/>
<path fill-opacity="0.15" fill="white" d="M816.606 82.5532L823.793 95H809.42L816.606 82.5532Z"/>
<path fill-opacity="0.15" fill="white" d="M809.372 70L816.559 82.4468H802.186L809.372 70Z"/>
<path fill-opacity="0.15" fill="white" d="M641.751 119.636L648.937 132.083H634.565L641.751 119.636Z"/>
<path fill-opacity="0.15" fill="white" d="M656.171 119.636L663.357 132.083H648.985L656.171 119.636Z"/>
<path fill-opacity="0.15" fill="white" d="M648.937 107.083L656.123 119.53H641.751L648.937 107.083Z"/>
<path fill-opacity="0.15" fill="white" d="M675.186 82.5532L682.372 95H668L675.186 82.5532Z"/>
<path fill-opacity="0.15" fill="white" d="M689.606 82.5532L696.793 95H682.42L689.606 82.5532Z"/>
<path fill-opacity="0.15" fill="white" d="M682.372 70L689.559 82.4468H675.186L682.372 70Z"/>
<path fill-opacity="0.15" fill="white" d="M515.47 119.636L522.656 132.083H508.284L515.47 119.636Z"/>
<path fill-opacity="0.15" fill="white" d="M529.89 119.636L537.076 132.083H522.704L529.89 119.636Z"/>
<path fill-opacity="0.15" fill="white" d="M522.656 107.083L529.842 119.53H515.47L522.656 107.083Z"/>
<path fill-opacity="0.15" fill="white" d="M549.186 82.5532L556.372 95H542L549.186 82.5532Z"/>
<path fill-opacity="0.15" fill="white" d="M563.606 82.5532L570.793 95H556.42L563.606 82.5532Z"/>
<path fill-opacity="0.15" fill="white" d="M556.372 70L563.559 82.4468H549.186L556.372 70Z"/>
<path fill-opacity="0.15" fill="white" d="M388.186 119.636L395.372 132.083H381L388.186 119.636Z"/>
<path fill-opacity="0.15" fill="white" d="M402.606 119.636L409.793 132.083H395.42L402.606 119.636Z"/>
<path fill-opacity="0.15" fill="white" d="M395.372 107.083L402.559 119.53H388.186L395.372 107.083Z"/>
<path fill-opacity="0.15" fill="white" d="M422.186 82.5532L429.372 95H415L422.186 82.5532Z"/>
<path fill-opacity="0.15" fill="white" d="M436.606 82.5532L443.793 95H429.42L436.606 82.5532Z"/>
<path fill-opacity="0.15" fill="white" d="M429.372 70L436.559 82.4468H422.186L429.372 70Z"/>
<path fill-opacity="0.15" fill="white" d="M451.327 119.636L458.513 132.083H444.141L451.327 119.636Z"/>
<path fill-opacity="0.15" fill="white" d="M465.747 119.636L472.933 132.083H458.561L465.747 119.636Z"/>
<path fill-opacity="0.15" fill="white" d="M458.513 107.083L465.699 119.53H451.327L458.513 107.083Z"/>
<path fill-opacity="0.15" fill="white" d="M485.186 82.5532L492.372 95H478L485.186 82.5532Z"/>
<path fill-opacity="0.15" fill="white" d="M499.606 82.5532L506.793 95H492.42L499.606 82.5532Z"/>
<path fill-opacity="0.15" fill="white" d="M492.372 70L499.559 82.4468H485.186L492.372 70Z"/>
</g>
<g clip-path="url(#clip10_0_1)">
<path fill-opacity="0.15" fill="white" d="M578.61 188.636L585.796 201.083H571.424L578.61 188.636Z"/>
<path fill-opacity="0.15" fill="white" d="M593.03 188.636L600.217 201.083H585.844L593.03 188.636Z"/>
<path fill-opacity="0.15" fill="white" d="M585.796 176.083L592.983 188.53H578.61L585.796 176.083Z"/>
<path fill-opacity="0.15" fill="white" d="M612.186 151.553L619.372 164H605L612.186 151.553Z"/>
<path fill-opacity="0.15" fill="white" d="M626.606 151.553L633.793 164H619.42L626.606 151.553Z"/>
<path fill-opacity="0.15" fill="white" d="M619.372 139L626.559 151.447H612.186L619.372 139Z"/>
<path fill-opacity="0.15" fill="white" d="M704.892 188.636L712.078 201.083H697.705L704.892 188.636Z"/>
<path fill-opacity="0.15" fill="white" d="M719.312 188.636L726.498 201.083H712.126L719.312 188.636Z"/>
<path fill-opacity="0.15" fill="white" d="M712.078 176.083L719.264 188.53H704.892L712.078 176.083Z"/>
<path fill-opacity="0.15" fill="white" d="M738.186 151.553L745.372 164H731L738.186 151.553Z"/>
<path fill-opacity="0.15" fill="white" d="M752.606 151.553L759.793 164H745.42L752.606 151.553Z"/>
<path fill-opacity="0.15" fill="white" d="M745.372 139L752.559 151.447H738.186L745.372 139Z"/>
<path fill-opacity="0.15" fill="white" d="M769.034 188.636L776.221 201.083H761.848L769.034 188.636Z"/>
<path fill-opacity="0.15" fill="white" d="M783.455 188.636L790.641 201.083H776.268L783.455 188.636Z"/>
<path fill-opacity="0.15" fill="white" d="M776.221 176.083L783.407 188.53H769.034L776.221 176.083Z"/>
<path fill-opacity="0.15" fill="white" d="M802.186 151.553L809.372 164H795L802.186 151.553Z"/>
<path fill-opacity="0.15" fill="white" d="M816.606 151.553L823.793 164H809.42L816.606 151.553Z"/>
<path fill-opacity="0.15" fill="white" d="M809.372 139L816.559 151.447H802.186L809.372 139Z"/>
<path fill-opacity="0.15" fill="white" d="M641.751 188.636L648.937 201.083H634.565L641.751 188.636Z"/>
<path fill-opacity="0.15" fill="white" d="M656.171 188.636L663.357 201.083H648.985L656.171 188.636Z"/>
<path fill-opacity="0.15" fill="white" d="M648.937 176.083L656.123 188.53H641.751L648.937 176.083Z"/>
<path fill-opacity="0.15" fill="white" d="M675.186 151.553L682.372 164H668L675.186 151.553Z"/>
<path fill-opacity="0.15" fill="white" d="M689.606 151.553L696.793 164H682.42L689.606 151.553Z"/>
<path fill-opacity="0.15" fill="white" d="M682.372 139L689.559 151.447H675.186L682.372 139Z"/>
<path fill-opacity="0.15" fill="white" d="M515.47 188.636L522.656 201.083H508.284L515.47 188.636Z"/>
<path fill-opacity="0.15" fill="white" d="M529.89 188.636L537.076 201.083H522.704L529.89 188.636Z"/>
<path fill-opacity="0.15" fill="white" d="M522.656 176.083L529.842 188.53H515.47L522.656 176.083Z"/>
<path fill-opacity="0.15" fill="white" d="M549.186 151.553L556.372 164H542L549.186 151.553Z"/>
<path fill-opacity="0.15" fill="white" d="M563.606 151.553L570.793 164H556.42L563.606 151.553Z"/>
<path fill-opacity="0.15" fill="white" d="M556.372 139L563.559 151.447H549.186L556.372 139Z"/>
<path fill-opacity="0.15" fill="white" d="M388.186 188.636L395.372 201.083H381L388.186 188.636Z"/>
<path fill-opacity="0.15" fill="white" d="M402.606 188.636L409.793 201.083H395.42L402.606 188.636Z"/>
<path fill-opacity="0.15" fill="white" d="M395.372 176.083L402.559 188.53H388.186L395.372 176.083Z"/>
<path fill-opacity="0.15" fill="white" d="M422.186 151.553L429.372 164H415L422.186 151.553Z"/>
<path fill-opacity="0.15" fill="white" d="M436.606 151.553L443.793 164H429.42L436.606 151.553Z"/>
<path fill-opacity="0.15" fill="white" d="M429.372 139L436.559 151.447H422.186L429.372 139Z"/>
<path fill-opacity="0.15" fill="white" d="M451.327 188.636L458.513 201.083H444.141L451.327 188.636Z"/>
<path fill-opacity="0.15" fill="white" d="M465.747 188.636L472.933 201.083H458.561L465.747 188.636Z"/>
<path fill-opacity="0.15" fill="white" d="M458.513 176.083L465.699 188.53H451.327L458.513 176.083Z"/>
<path fill-opacity="0.15" fill="white" d="M485.186 151.553L492.372 164H478L485.186 151.553Z"/>
<path fill-opacity="0.15" fill="white" d="M499.606 151.553L506.793 164H492.42L499.606 151.553Z"/>
<path fill-opacity="0.15" fill="white" d="M492.372 139L499.559 151.447H485.186L492.372 139Z"/>
</g>
<g clip-path="url(#clip11_0_1)">
<path fill-opacity="0.15" fill="white" d="M578.61 259.636L585.796 272.083H571.424L578.61 259.636Z"/>
<path fill-opacity="0.15" fill="white" d="M593.03 259.636L600.217 272.083H585.844L593.03 259.636Z"/>
<path fill-opacity="0.15" fill="white" d="M585.796 247.083L592.983 259.53H578.61L585.796 247.083Z"/>
<path fill-opacity="0.15" fill="white" d="M612.186 222.553L619.372 235H605L612.186 222.553Z"/>
<path fill-opacity="0.15" fill="white" d="M626.606 222.553L633.793 235H619.42L626.606 222.553Z"/>
<path fill-opacity="0.15" fill="white" d="M619.372 210L626.559 222.447H612.186L619.372 210Z"/>
<path fill-opacity="0.15" fill="white" d="M704.892 259.636L712.078 272.083H697.705L704.892 259.636Z"/>
<path fill-opacity="0.15" fill="white" d="M719.312 259.636L726.498 272.083H712.126L719.312 259.636Z"/>
<path fill-opacity="0.15" fill="white" d="M712.078 247.083L719.264 259.53H704.892L712.078 247.083Z"/>
<path fill-opacity="0.15" fill="white" d="M738.186 222.553L745.372 235H731L738.186 222.553Z"/>
<path fill-opacity="0.15" fill="white" d="M752.606 222.553L759.793 235H745.42L752.606 222.553Z"/>
<path fill-opacity="0.15" fill="white" d="M745.372 210L752.559 222.447H738.186L745.372 210Z"/>
<path fill-opacity="0.15" fill="white" d="M769.034 259.636L776.221 272.083H761.848L769.034 259.636Z"/>
<path fill-opacity="0.15" fill="white" d="M783.455 259.636L790.641 272.083H776.268L783.455 259.636Z"/>
<path fill-opacity="0.15" fill="white" d="M776.221 247.083L783.407 259.53H769.034L776.221 247.083Z"/>
<path fill-opacity="0.15" fill="white" d="M802.186 222.553L809.372 235H795L802.186 222.553Z"/>
<path fill-opacity="0.15" fill="white" d="M816.606 222.553L823.793 235H809.42L816.606 222.553Z"/>
<path fill-opacity="0.15" fill="white" d="M809.372 210L816.559 222.447H802.186L809.372 210Z"/>
<path fill-opacity="0.15" fill="white" d="M641.751 259.636L648.937 272.083H634.565L641.751 259.636Z"/>
<path fill-opacity="0.15" fill="white" d="M656.171 259.636L663.357 272.083H648.985L656.171 259.636Z"/>
<path fill-opacity="0.15" fill="white" d="M648.937 247.083L656.123 259.53H641.751L648.937 247.083Z"/>
<path fill-opacity="0.15" fill="white" d="M675.186 222.553L682.372 235H668L675.186 222.553Z"/>
<path fill-opacity="0.15" fill="white" d="M689.606 222.553L696.793 235H682.42L689.606 222.553Z"/>
<path fill-opacity="0.15" fill="white" d="M682.372 210L689.559 222.447H675.186L682.372 210Z"/>
<path fill-opacity="0.15" fill="white" d="M515.47 259.636L522.656 272.083H508.284L515.47 259.636Z"/>
<path fill-opacity="0.15" fill="white" d="M529.89 259.636L537.076 272.083H522.704L529.89 259.636Z"/>
<path fill-opacity="0.15" fill="white" d="M522.656 247.083L529.842 259.53H515.47L522.656 247.083Z"/>
<path fill-opacity="0.15" fill="white" d="M549.186 222.553L556.372 235H542L549.186 222.553Z"/>
<path fill-opacity="0.15" fill="white" d="M563.606 222.553L570.793 235H556.42L563.606 222.553Z"/>
<path fill-opacity="0.15" fill="white" d="M556.372 210L563.559 222.447H549.186L556.372 210Z"/>
<path fill-opacity="0.15" fill="white" d="M388.186 259.636L395.372 272.083H381L388.186 259.636Z"/>
<path fill-opacity="0.15" fill="white" d="M402.606 259.636L409.793 272.083H395.42L402.606 259.636Z"/>
<path fill-opacity="0.15" fill="white" d="M395.372 247.083L402.559 259.53H388.186L395.372 247.083Z"/>
<path fill-opacity="0.15" fill="white" d="M422.186 222.553L429.372 235H415L422.186 222.553Z"/>
<path fill-opacity="0.15" fill="white" d="M436.606 222.553L443.793 235H429.42L436.606 222.553Z"/>
<path fill-opacity="0.15" fill="white" d="M429.372 210L436.559 222.447H422.186L429.372 210Z"/>
<path fill-opacity="0.15" fill="white" d="M451.327 259.636L458.513 272.083H444.141L451.327 259.636Z"/>
<path fill-opacity="0.15" fill="white" d="M465.747 259.636L472.933 272.083H458.561L465.747 259.636Z"/>
<path fill-opacity="0.15" fill="white" d="M458.513 247.083L465.699 259.53H451.327L458.513 247.083Z"/>
<path fill-opacity="0.15" fill="white" d="M485.186 222.553L492.372 235H478L485.186 222.553Z"/>
<path fill-opacity="0.15" fill="white" d="M499.606 222.553L506.793 235H492.42L499.606 222.553Z"/>
<path fill-opacity="0.15" fill="white" d="M492.372 210L499.559 222.447H485.186L492.372 210Z"/>
</g>
<g clip-path="url(#clip12_0_1)">
<path fill-opacity="0.15" fill="white" d="M578.61 328.636L585.796 341.083H571.424L578.61 328.636Z"/>
<path fill-opacity="0.15" fill="white" d="M593.03 328.636L600.217 341.083H585.844L593.03 328.636Z"/>
<path fill-opacity="0.15" fill="white" d="M585.796 316.083L592.983 328.53H578.61L585.796 316.083Z"/>
<path fill-opacity="0.15" fill="white" d="M612.186 291.553L619.372 304H605L612.186 291.553Z"/>
<path fill-opacity="0.15" fill="white" d="M626.606 291.553L633.793 304H619.42L626.606 291.553Z"/>
<path fill-opacity="0.15" fill="white" d="M619.372 279L626.559 291.447H612.186L619.372 279Z"/>
<path fill-opacity="0.15" fill="white" d="M704.892 328.636L712.078 341.083H697.705L704.892 328.636Z"/>
<path fill-opacity="0.15" fill="white" d="M719.312 328.636L726.498 341.083H712.126L719.312 328.636Z"/>
<path fill-opacity="0.15" fill="white" d="M712.078 316.083L719.264 328.53H704.892L712.078 316.083Z"/>
<path fill-opacity="0.15" fill="white" d="M738.186 291.553L745.372 304H731L738.186 291.553Z"/>
<path fill-opacity="0.15" fill="white" d="M752.606 291.553L759.793 304H745.42L752.606 291.553Z"/>
<path fill-opacity="0.15" fill="white" d="M745.372 279L752.559 291.447H738.186L745.372 279Z"/>
<path fill-opacity="0.15" fill="white" d="M769.034 328.636L776.221 341.083H761.848L769.034 328.636Z"/>
<path fill-opacity="0.15" fill="white" d="M783.455 328.636L790.641 341.083H776.268L783.455 328.636Z"/>
<path fill-opacity="0.15" fill="white" d="M776.221 316.083L783.407 328.53H769.034L776.221 316.083Z"/>
<path fill-opacity="0.15" fill="white" d="M802.186 291.553L809.372 304H795L802.186 291.553Z"/>
<path fill-opacity="0.15" fill="white" d="M816.606 291.553L823.793 304H809.42L816.606 291.553Z"/>
<path fill-opacity="0.15" fill="white" d="M809.372 279L816.559 291.447H802.186L809.372 279Z"/>
<path fill-opacity="0.15" fill="white" d="M641.751 328.636L648.937 341.083H634.565L641.751 328.636Z"/>
<path fill-opacity="0.15" fill="white" d="M656.171 328.636L663.357 341.083H648.985L656.171 328.636Z"/>
<path fill-opacity="0.15" fill="white" d="M648.937 316.083L656.123 328.53H641.751L648.937 316.083Z"/>
<path fill-opacity="0.15" fill="white" d="M675.186 291.553L682.372 304H668L675.186 291.553Z"/>
<path fill-opacity="0.15" fill="white" d="M689.606 291.553L696.793 304H682.42L689.606 291.553Z"/>
<path fill-opacity="0.15" fill="white" d="M682.372 279L689.559 291.447H675.186L682.372 279Z"/>
<path fill-opacity="0.15" fill="white" d="M515.47 328.636L522.656 341.083H508.284L515.47 328.636Z"/>
<path fill-opacity="0.15" fill="white" d="M529.89 328.636L537.076 341.083H522.704L529.89 328.636Z"/>
<path fill-opacity="0.15" fill="white" d="M522.656 316.083L529.842 328.53H515.47L522.656 316.083Z"/>
<path fill-opacity="0.15" fill="white" d="M549.186 291.553L556.372 304H542L549.186 291.553Z"/>
<path fill-opacity="0.15" fill="white" d="M563.606 291.553L570.793 304H556.42L563.606 291.553Z"/>
<path fill-opacity="0.15" fill="white" d="M556.372 279L563.559 291.447H549.186L556.372 279Z"/>
<path fill-opacity="0.15" fill="white" d="M388.186 328.636L395.372 341.083H381L388.186 328.636Z"/>
<path fill-opacity="0.15" fill="white" d="M402.606 328.636L409.793 341.083H395.42L402.606 328.636Z"/>
<path fill-opacity="0.15" fill="white" d="M395.372 316.083L402.559 328.53H388.186L395.372 316.083Z"/>
<path fill-opacity="0.15" fill="white" d="M422.186 291.553L429.372 304H415L422.186 291.553Z"/>
<path fill-opacity="0.15" fill="white" d="M436.606 291.553L443.793 304H429.42L436.606 291.553Z"/>
<path fill-opacity="0.15" fill="white" d="M429.372 279L436.559 291.447H422.186L429.372 279Z"/>
<path fill-opacity="0.15" fill="white" d="M451.327 328.636L458.513 341.083H444.141L451.327 328.636Z"/>
<path fill-opacity="0.15" fill="white" d="M465.747 328.636L472.933 341.083H458.561L465.747 328.636Z"/>
<path fill-opacity="0.15" fill="white" d="M458.513 316.083L465.699 328.53H451.327L458.513 316.083Z"/>
<path fill-opacity="0.15" fill="white" d="M485.186 291.553L492.372 304H478L485.186 291.553Z"/>
<path fill-opacity="0.15" fill="white" d="M499.606 291.553L506.793 304H492.42L499.606 291.553Z"/>
<path fill-opacity="0.15" fill="white" d="M492.372 279L499.559 291.447H485.186L492.372 279Z"/>
</g>
<g clip-path="url(#clip13_0_1)">
<path fill-opacity="0.15" fill="white" d="M585.796 387.083L592.983 399.53H578.61L585.796 387.083Z"/>
<path fill-opacity="0.15" fill="white" d="M612.186 362.553L619.372 375H605L612.186 362.553Z"/>
<path fill-opacity="0.15" fill="white" d="M626.606 362.553L633.793 375H619.42L626.606 362.553Z"/>
<path fill-opacity="0.15" fill="white" d="M619.372 350L626.559 362.447H612.186L619.372 350Z"/>
<path fill-opacity="0.15" fill="white" d="M712.078 387.083L719.264 399.53H704.892L712.078 387.083Z"/>
<path fill-opacity="0.15" fill="white" d="M738.186 362.553L745.372 375H731L738.186 362.553Z"/>
<path fill-opacity="0.15" fill="white" d="M752.606 362.553L759.793 375H745.42L752.606 362.553Z"/>
<path fill-opacity="0.15" fill="white" d="M745.372 350L752.559 362.447H738.186L745.372 350Z"/>
<path fill-opacity="0.15" fill="white" d="M776.221 387.083L783.407 399.53H769.034L776.221 387.083Z"/>
<path fill-opacity="0.15" fill="white" d="M802.186 362.553L809.372 375H795L802.186 362.553Z"/>
<path fill-opacity="0.15" fill="white" d="M816.606 362.553L823.793 375H809.42L816.606 362.553Z"/>
<path fill-opacity="0.15" fill="white" d="M809.372 350L816.559 362.447H802.186L809.372 350Z"/>
<path fill-opacity="0.15" fill="white" d="M648.937 387.083L656.123 399.53H641.751L648.937 387.083Z"/>
<path fill-opacity="0.15" fill="white" d="M675.186 362.553L682.372 375H668L675.186 362.553Z"/>
<path fill-opacity="0.15" fill="white" d="M689.606 362.553L696.793 375H682.42L689.606 362.553Z"/>
<path fill-opacity="0.15" fill="white" d="M682.372 350L689.559 362.447H675.186L682.372 350Z"/>
<path fill-opacity="0.15" fill="white" d="M522.656 387.083L529.842 399.53H515.47L522.656 387.083Z"/>
<path fill-opacity="0.15" fill="white" d="M549.186 362.553L556.372 375H542L549.186 362.553Z"/>
<path fill-opacity="0.15" fill="white" d="M563.606 362.553L570.793 375H556.42L563.606 362.553Z"/>
<path fill-opacity="0.15" fill="white" d="M556.372 350L563.559 362.447H549.186L556.372 350Z"/>
<path fill-opacity="0.15" fill="white" d="M395.372 387.083L402.559 399.53H388.186L395.372 387.083Z"/>
<path fill-opacity="0.15" fill="white" d="M422.186 362.553L429.372 375H415L422.186 362.553Z"/>
<path fill-opacity="0.15" fill="white" d="M436.606 362.553L443.793 375H429.42L436.606 362.553Z"/>
<path fill-opacity="0.15" fill="white" d="M429.372 350L436.559 362.447H422.186L429.372 350Z"/>
<path fill-opacity="0.15" fill="white" d="M458.513 387.083L465.699 399.53H451.327L458.513 387.083Z"/>
<path fill-opacity="0.15" fill="white" d="M485.186 362.553L492.372 375H478L485.186 362.553Z"/>
<path fill-opacity="0.15" fill="white" d="M499.606 362.553L506.793 375H492.42L499.606 362.553Z"/>
<path fill-opacity="0.15" fill="white" d="M492.372 350L499.559 362.447H485.186L492.372 350Z"/>
</g>
</g>
<defs>
<clipPath id="clip0_0_1">
<rect fill="white" height="399" width="429"/>
</clipPath>
<clipPath id="clip1_0_1">
<rect fill="white" height="71" width="429"/>
</clipPath>
<clipPath id="clip2_0_1">
<rect transform="translate(0 71)" fill="white" height="69" width="429"/>
</clipPath>
<clipPath id="clip3_0_1">
<rect transform="translate(0 140)" fill="white" height="71" width="429"/>
</clipPath>
<clipPath id="clip4_0_1">
<rect transform="translate(0 211)" fill="white" height="69" width="429"/>
</clipPath>
<clipPath id="clip5_0_1">
<rect transform="translate(0 280)" fill="white" height="71" width="429"/>
</clipPath>
<clipPath id="clip6_0_1">
<rect transform="translate(0 351)" fill="white" height="112" width="429"/>
</clipPath>
<clipPath id="clip7_0_1">
<rect transform="translate(381)" fill="white" height="399" width="517"/>
</clipPath>
<clipPath id="clip8_0_1">
<rect transform="translate(381)" fill="white" height="71" width="517"/>
</clipPath>
<clipPath id="clip9_0_1">
<rect transform="translate(381 71)" fill="white" height="69" width="517"/>
</clipPath>
<clipPath id="clip10_0_1">
<rect transform="translate(381 140)" fill="white" height="71" width="517"/>
</clipPath>
<clipPath id="clip11_0_1">
<rect transform="translate(381 211)" fill="white" height="69" width="517"/>
</clipPath>
<clipPath id="clip12_0_1">
<rect transform="translate(381 280)" fill="white" height="71" width="517"/>
</clipPath>
<clipPath id="clip13_0_1">
<rect transform="translate(381 351)" fill="white" height="112" width="517"/>
</clipPath>
</defs>
</svg>